<svg xmlns="http://www.w3.org/2000/svg" viewBox="0 0 20 25"><title>z-bag</title><g id="Camada_2" data-name="Camada 2"><g id="Camada_1-2" data-name="Camada 1"><path d="M10,0a4.39,4.39,0,0,0-4.3,4.46v.9H2.25a.87.87,0,0,0-.86.8L0,20.13A4.41,4.41,0,0,0,3.91,25l.41,0H15.68A4.38,4.38,0,0,0,20,20.55c0-.14,0-.28,0-.42l-1.39-14a.87.87,0,0,0-.86-.8H14.29v-.9A4.38,4.38,0,0,0,10,0ZM7.41,4.46a2.58,2.58,0,1,1,5.16,0v.9H7.41ZM17,7.14l1.29,13.15a2.64,2.64,0,0,1-2.33,2.91H4.3a2.62,2.62,0,0,1-2.59-2.66,2,2,0,0,1,0-.25L3,7.14H5.69V9.82a.86.86,0,1,0,1.72,0V7.14h5.16V9.82a.86.86,0,1,0,1.72,0V7.14Z"/></g></g></svg>