<svg xmlns="http://www.w3.org/2000/svg" viewBox="0 0 20 20"><title>z-cupom</title><g id="Camada_2" data-name="Camada 2"><g id="Camada_1-2" data-name="Camada 1"><path d="M19.56,8.58,19.17,8a1.34,1.34,0,0,1-.23-.77l0-.72A2.54,2.54,0,0,0,17.55,4l-.65-.33a1.25,1.25,0,0,1-.58-.58L16,2.45A2.57,2.57,0,0,0,13.53,1l-.71,0A1.38,1.38,0,0,1,12,.83L11.43.44a2.53,2.53,0,0,0-2.86,0L8,.83a1.38,1.38,0,0,1-.78.22L6.47,1A2.57,2.57,0,0,0,4,2.45l-.32.65a1.3,1.3,0,0,1-.58.58L2.45,4A2.54,2.54,0,0,0,1,6.47l0,.72A1.27,1.27,0,0,1,.83,8l-.39.62a2.53,2.53,0,0,0,0,2.86l.39.61a1.38,1.38,0,0,1,.22.78l0,.71A2.56,2.56,0,0,0,2.45,16l.65.32a1.32,1.32,0,0,1,.58.59l.32.65A2.54,2.54,0,0,0,6.47,19l.71,0a1.39,1.39,0,0,1,.78.23l.61.39a2.64,2.64,0,0,0,2.86,0l.61-.39a1.39,1.39,0,0,1,.78-.23l.71,0A2.54,2.54,0,0,0,16,17.57l.32-.65a1.28,1.28,0,0,1,.58-.59l.65-.32A2.56,2.56,0,0,0,19,13.54l0-.71a1.33,1.33,0,0,1,.23-.78l.39-.61A2.57,2.57,0,0,0,19.56,8.58Zm-1.07,2.14-.39.62a2.75,2.75,0,0,0-.42,1.59l0,.71A1.28,1.28,0,0,1,17,14.87l-.65.33a2.75,2.75,0,0,0-1.17,1.17l-.32.65a1.33,1.33,0,0,1-1.23.71l-.71,0a2.74,2.74,0,0,0-1.59.42l-.62.39a1.27,1.27,0,0,1-1.42,0l-.62-.39a2.54,2.54,0,0,0-1.43-.42H7.08l-.71,0A1.29,1.29,0,0,1,5.14,17l-.33-.65A2.73,2.73,0,0,0,3.65,15.2L3,14.87a1.29,1.29,0,0,1-.72-1.23l0-.71a2.84,2.84,0,0,0-.42-1.59l-.39-.62a1.28,1.28,0,0,1,0-1.43l.39-.61a2.77,2.77,0,0,0,.42-1.59l0-.72A1.31,1.31,0,0,1,3,5.14l.65-.32A2.73,2.73,0,0,0,4.81,3.65L5.14,3a1.28,1.28,0,0,1,1.23-.71l.71,0A2.84,2.84,0,0,0,8.67,1.9l.62-.39a1.27,1.27,0,0,1,1.42,0l.62.39a2.68,2.68,0,0,0,1.59.42l.71,0A1.29,1.29,0,0,1,14.86,3l.32.65a2.7,2.7,0,0,0,1.17,1.17l.65.32a1.3,1.3,0,0,1,.71,1.23l0,.72a2.84,2.84,0,0,0,.42,1.59l.39.61A1.41,1.41,0,0,1,18.49,10.72Zm-11-1.13a2.4,2.4,0,1,0-2.4-2.4A2.42,2.42,0,0,0,7.47,9.59Zm0-3.54a1.11,1.11,0,1,1-1.1,1.1A1.09,1.09,0,0,1,7.47,6.05Zm5.06,4.38a2.4,2.4,0,1,0,2.4,2.4A2.39,2.39,0,0,0,12.53,10.43Zm0,3.54a1.11,1.11,0,1,1,1.1-1.11A1.09,1.09,0,0,1,12.53,14Zm1.18-8.6L5.39,13.7l.92.92,8.32-8.33Z"/></g></g></svg>