<svg xmlns="http://www.w3.org/2000/svg" viewBox="0 0 20 20"><title>z-instagram</title><g id="Camada_2" data-name="Camada 2"><g id="Camada_1-2" data-name="Camada 1"><path d="M13.09,7.53h0c.17,0,.34,0,.5,0a.4.4,0,0,0,.39-.4v-1a.41.41,0,0,0-.41-.41h-1a.41.41,0,0,0-.41.41v1a.59.59,0,0,0,0,.14.42.42,0,0,0,.41.28ZM10,7.94A2.06,2.06,0,1,0,12.06,10,2.06,2.06,0,0,0,10,7.94ZM6,9v4.54a.4.4,0,0,0,.4.4h7.16a.4.4,0,0,0,.4-.4V9H13a3.2,3.2,0,0,1,.13,1.34,3.17,3.17,0,0,1-.44,1.26,3.11,3.11,0,0,1-.93,1,3.16,3.16,0,0,1-3.31.14,3.12,3.12,0,0,1-1.23-1.24A3.16,3.16,0,0,1,7,9Zm8.05,6,.16,0a1.11,1.11,0,0,0,.83-.85.78.78,0,0,0,0-.14V5.93a.59.59,0,0,0,0-.13,1.11,1.11,0,0,0-.92-.88H5.92l-.15,0a1.09,1.09,0,0,0-.84.92.13.13,0,0,0,0,.06v8.16a.77.77,0,0,0,0,.15,1.08,1.08,0,0,0,.93.84h8.2ZM10,20A10,10,0,1,1,20,10,10,10,0,0,1,10,20Z"/></g></g></svg>