<svg xmlns="http://www.w3.org/2000/svg" viewBox="0 0 20 20"><title>z-whatsapp</title><g id="Camada_2" data-name="Camada 2"><g id="Camada_1-2" data-name="Camada 1"><path d="M10.18,0A9.78,9.78,0,0,0,.36,9.74a9.66,9.66,0,0,0,1.41,5L0,20l5.44-1.73A9.76,9.76,0,1,0,10.18,0Zm4.88,13.44a2.49,2.49,0,0,1-1.73,1.12c-.46,0-.48.36-3-.73A10.19,10.19,0,0,1,6.2,9.91a4.76,4.76,0,0,1-.92-2.6,2.77,2.77,0,0,1,1-2A1,1,0,0,1,6.91,5a3.82,3.82,0,0,1,.48,0c.14,0,.36,0,.55.47l.7,1.88a.44.44,0,0,1,0,.43,1.62,1.62,0,0,1-.27.41c-.13.14-.27.31-.39.42s-.27.25-.13.5a7.55,7.55,0,0,0,1.33,1.78,7,7,0,0,0,2,1.31c.24.13.39.11.54,0a11.52,11.52,0,0,0,.83-.94c.18-.24.35-.2.57-.1s1.44.73,1.69.87.41.2.46.31A2,2,0,0,1,15.06,13.44Z"/></g></g></svg>