<svg xmlns="http://www.w3.org/2000/svg" viewBox="0 0 20 20"><title>z-youtube</title><g id="Camada_2" data-name="Camada 2"><g id="Camada_1-2" data-name="Camada 1"><path d="M9.32,14.25a1.29,1.29,0,0,1-.18.16.35.35,0,0,1-.16.06c-.06,0-.1,0-.12-.05a.21.21,0,0,1,0-.15V12H8.24v2.48a.63.63,0,0,0,.1.39.36.36,0,0,0,.31.13A.71.71,0,0,0,9,14.91a1.19,1.19,0,0,0,.34-.27V15H9.9V12H9.32Zm.5-6.31A.32.32,0,0,0,10,7.86a.28.28,0,0,0,.08-.2V5.88A.21.21,0,0,0,10,5.71a.31.31,0,0,0-.21-.07.27.27,0,0,0-.2.07.21.21,0,0,0-.07.17V7.66a.27.27,0,0,0,.07.2A.25.25,0,0,0,9.82,7.94ZM6,11.53h.68V15h.66V11.53H8V11H6ZM10,0A10,10,0,1,0,20,10,10,10,0,0,0,10,0Zm1.3,5.16H12v2.5a.24.24,0,0,0,0,.16.15.15,0,0,0,.13.06.5.5,0,0,0,.19-.07,1.12,1.12,0,0,0,.2-.18V5.16h.65V8.42h-.65V8.06a1.47,1.47,0,0,1-.38.3.82.82,0,0,1-.38.11.41.41,0,0,1-.34-.15.68.68,0,0,1-.12-.44ZM8.87,5.9a.74.74,0,0,1,.27-.6,1,1,0,0,1,.71-.22,1,1,0,0,1,.66.23.77.77,0,0,1,.26.61V7.61a.85.85,0,0,1-.25.65,1,1,0,0,1-.7.24,1,1,0,0,1-.69-.24.9.9,0,0,1-.26-.67ZM7.09,4l.48,1.77h0L8.07,4h.75L8,6.59V8.42H7.22V6.67L6.34,4ZM14.5,15.85c-.48.47-4.5.48-4.5.48s-4,0-4.51-.48S5,13,5,13s0-2.37.48-2.85S10,9.66,10,9.66s4,0,4.5.48S15,13,15,13,15,15.37,14.5,15.85Zm-1.3-3.92a.89.89,0,0,0-.64.24.85.85,0,0,0-.24.63v1.33a1,1,0,0,0,.22.67.81.81,0,0,0,.62.24.83.83,0,0,0,.65-.23.93.93,0,0,0,.22-.68V14h-.6v.13a.61.61,0,0,1-.06.34.23.23,0,0,1-.2.07.22.22,0,0,1-.2-.08.69.69,0,0,1-.05-.33v-.56H14V12.8a.88.88,0,0,0-.22-.65A.79.79,0,0,0,13.2,11.93Zm.23,1.16h-.51v-.3a.43.43,0,0,1,.06-.26.21.21,0,0,1,.2-.08.21.21,0,0,1,.19.08.43.43,0,0,1,.06.26Zm-2-1.12a.48.48,0,0,0-.26.07.76.76,0,0,0-.25.2V11h-.59v4h.59v-.23a.77.77,0,0,0,.24.21.75.75,0,0,0,.31.06.48.48,0,0,0,.39-.17.69.69,0,0,0,.14-.48V12.71a1,1,0,0,0-.14-.56A.52.52,0,0,0,11.44,12Zm0,2.3a.28.28,0,0,1-.05.2.18.18,0,0,1-.15.06l-.15,0a.38.38,0,0,1-.13-.1V12.56a.24.24,0,0,1,.12-.09.18.18,0,0,1,.12,0,.21.21,0,0,1,.18.07.37.37,0,0,1,.06.23Z"/></g></g></svg>