<svg class="svg-sprites" id="skin-sprite" xmlns="http://www.w3.org/2000/svg" xmlns:xlink="http://www.w3.org/1999/xlink">
    <symbol viewBox="0 0 20 25" id="z-bag" xmlns="http://www.w3.org/2000/svg"><g data-name="Camada 2"><path d="M10 0a4.39 4.39 0 00-4.3 4.46v.9H2.25a.87.87 0 00-.86.8L0 20.13A4.41 4.41 0 003.91 25h11.77A4.38 4.38 0 0020 20.55v-.42l-1.39-14a.87.87 0 00-.86-.8h-3.46v-.9A4.38 4.38 0 0010 0zM7.41 4.46a2.58 2.58 0 115.16 0v.9H7.41zM17 7.14l1.29 13.15a2.64 2.64 0 01-2.33 2.91H4.3a2.62 2.62 0 01-2.59-2.66 2 2 0 010-.25L3 7.14h2.69v2.68a.86.86 0 101.72 0V7.14h5.16v2.68a.86.86 0 101.72 0V7.14z" data-name="Camada 1"/></g></symbol>
    <symbol viewBox="0 0 20 20" id="z-close" xmlns="http://www.w3.org/2000/svg"><g data-name="Camada 2"><path d="M3.64 20L0 16.36 6.36 10 0 3.65 3.65 0 10 6.36 16.36 0 20 3.65 13.64 10 20 16.35 16.35 20 10 13.65z" fill-rule="evenodd" data-name="Camada 1"/></g></symbol>
    <symbol viewBox="0 0 20 20" id="z-cupom" xmlns="http://www.w3.org/2000/svg"><g data-name="Camada 2"><path d="M19.56 8.58L19.17 8a1.34 1.34 0 01-.23-.77v-.72A2.54 2.54 0 0017.55 4l-.65-.33a1.25 1.25 0 01-.58-.58L16 2.45A2.57 2.57 0 0013.53 1h-.71A1.38 1.38 0 0112 .83l-.57-.39a2.53 2.53 0 00-2.86 0L8 .83a1.38 1.38 0 01-.78.22L6.47 1A2.57 2.57 0 004 2.45l-.32.65a1.3 1.3 0 01-.58.58L2.45 4A2.54 2.54 0 001 6.47v.72A1.27 1.27 0 01.83 8l-.39.62a2.53 2.53 0 000 2.86l.39.61a1.38 1.38 0 01.22.78v.71A2.56 2.56 0 002.45 16l.65.32a1.32 1.32 0 01.58.59l.32.65A2.54 2.54 0 006.47 19h.71a1.39 1.39 0 01.78.23l.61.39a2.64 2.64 0 002.86 0l.61-.39a1.39 1.39 0 01.78-.23h.71A2.54 2.54 0 0016 17.57l.32-.65a1.28 1.28 0 01.58-.59l.65-.32A2.56 2.56 0 0019 13.54v-.71a1.33 1.33 0 01.23-.78l.39-.61a2.57 2.57 0 00-.06-2.86zm-1.07 2.14l-.39.62a2.75 2.75 0 00-.42 1.59v.71a1.28 1.28 0 01-.68 1.23l-.65.33a2.75 2.75 0 00-1.17 1.17l-.32.65a1.33 1.33 0 01-1.23.71h-.71a2.74 2.74 0 00-1.59.42l-.62.39a1.27 1.27 0 01-1.42 0l-.62-.39a2.54 2.54 0 00-1.43-.42h-.87A1.29 1.29 0 015.14 17l-.33-.65a2.73 2.73 0 00-1.16-1.15L3 14.87a1.29 1.29 0 01-.72-1.23v-.71a2.84 2.84 0 00-.42-1.59l-.39-.62a1.28 1.28 0 010-1.43l.39-.61a2.77 2.77 0 00.42-1.59v-.72A1.31 1.31 0 013 5.14l.65-.32a2.73 2.73 0 001.16-1.17L5.14 3a1.28 1.28 0 011.23-.71h.71a2.84 2.84 0 001.59-.39l.62-.39a1.27 1.27 0 011.42 0l.62.39a2.68 2.68 0 001.59.42h.71a1.29 1.29 0 011.23.68l.32.65a2.7 2.7 0 001.17 1.17l.65.32a1.3 1.3 0 01.71 1.23v.72a2.84 2.84 0 00.42 1.59l.39.61a1.41 1.41 0 01-.03 1.43zm-11-1.13a2.4 2.4 0 10-2.4-2.4 2.42 2.42 0 002.38 2.4zm0-3.54a1.11 1.11 0 11-1.1 1.1 1.09 1.09 0 011.08-1.1zm5.06 4.38a2.4 2.4 0 102.4 2.4 2.39 2.39 0 00-2.42-2.4zm0 3.54a1.11 1.11 0 111.1-1.11A1.09 1.09 0 0112.53 14zm1.18-8.6L5.39 13.7l.92.92 8.32-8.33z" data-name="Camada 1"/></g></symbol>
    <symbol viewBox="0 0 20 20" id="z-facebook" xmlns="http://www.w3.org/2000/svg"><g data-name="Camada 2"><path d="M8.59 15.44h2.25V10h1.5l.19-1.88h-1.69v-.93c0-.49.05-.76.75-.76h.93V4.56H11c-1.8 0-2.43.91-2.43 2.44v1.12h-1.1V10h1.12zM10 20a10 10 0 1110-10 10 10 0 01-10 10z" data-name="Camada 1"/></g></symbol>
    <symbol viewBox="0 0 20 20" id="z-instagram" xmlns="http://www.w3.org/2000/svg"><g data-name="Camada 2"><path d="M13.09 7.53h.5a.4.4 0 00.39-.4v-1a.41.41 0 00-.41-.41h-1a.41.41 0 00-.41.41v1a.59.59 0 000 .14.42.42 0 00.41.28zM10 7.94A2.06 2.06 0 1012.06 10 2.06 2.06 0 0010 7.94zM6 9v4.54a.4.4 0 00.4.4h7.16a.4.4 0 00.4-.4V9H13a3.2 3.2 0 01.13 1.34 3.17 3.17 0 01-.44 1.26 3.11 3.11 0 01-.93 1 3.16 3.16 0 01-3.31.14 3.12 3.12 0 01-1.23-1.24A3.16 3.16 0 017 9zm8.05 6h.16a1.11 1.11 0 00.83-.85.78.78 0 000-.14V5.93a.59.59 0 000-.13 1.11 1.11 0 00-.92-.88H5.77a1.09 1.09 0 00-.84.92.13.13 0 000 .06v8.16a.77.77 0 000 .15 1.08 1.08 0 00.93.84h8.2zM10 20a10 10 0 1110-10 10 10 0 01-10 10z" data-name="Camada 1"/></g></symbol>
    <symbol viewBox="0 0 14.01 20" id="z-map" xmlns="http://www.w3.org/2000/svg"><g data-name="Camada 2"><g data-name="Camada 1"><path d="M7.07 4.38a2.56 2.56 0 102.56 2.56 2.56 2.56 0 00-2.56-2.56zm0 4.39A1.83 1.83 0 118.9 6.94a1.83 1.83 0 01-1.83 1.83z"/><path d="M12 2.05a7 7 0 00-9.91 0 8 8 0 00-.66 9.85L7 20l5.61-8.09A8 8 0 0012 2.05zm0 9.43l-5 7.24-5-7.25a7.21 7.21 0 01.58-8.9 6.26 6.26 0 018.87 0 7.22 7.22 0 01.55 8.91z"/></g></g></symbol>
    <symbol viewBox="0 0 9.47 20" id="z-next" xmlns="http://www.w3.org/2000/svg"><g data-name="Camada 2"><path d="M0 18.66c.37.45.75.88 1.11 1.34.35-.38.66-.8 1-1.18C4.56 15.87 7 12.94 9.47 10 6.68 6.67 3.91 3.32 1.11 0 .75.45.37.89 0 1.34Q3.63 5.68 7.25 10 3.64 14.34 0 18.66z" data-name="Camada 1"/></g></symbol>
    <symbol viewBox="0 0 9.47 20" id="z-prev" xmlns="http://www.w3.org/2000/svg"><g data-name="Camada 2"><path d="M9.47 1.34C9.1.89 8.72.46 8.36 0c-.35.38-.66.8-1 1.18C4.91 4.13 2.45 7.06 0 10c2.79 3.32 5.56 6.67 8.36 10 .36-.45.74-.89 1.11-1.34L2.23 10z" data-name="Camada 1"/></g></symbol>
    <symbol viewBox="0 0 20 20" id="z-search" xmlns="http://www.w3.org/2000/svg"><g data-name="Camada 2"><path d="M19.69 18.2a1.05 1.05 0 01-1.49 1.49l-5.15-5.15a.66.66 0 00-.8-.07 3.88 3.88 0 01-.44.28 7.89 7.89 0 112.93-2.92 3.17 3.17 0 01-.27.42.66.66 0 00.07.8zm-11.8-4.52a5.79 5.79 0 10-5.78-5.79 5.79 5.79 0 005.78 5.79z" data-name="Camada 1"/></g></symbol>
    <symbol viewBox="0 0 24 20" id="z-ticket" xmlns="http://www.w3.org/2000/svg"><g data-name="Camada 2"><path d="M3.84 3h-1v14h1zm17.28 0h-1v14h1zM6.72 3h-1v10h1zm11.52 0h-1v10h1zm-5.76 0h-1v14h1zM9.6 3h-1v10h1zm5.76 0h-1v10h1zM9.6 14h-1v3h1zm-3 0h-1v3h1zm8.8 0h-1v3h1zm2 3h1v-3h-1zM0 0v20h24V0zm23 19H1V1h22z" data-name="Camada 1"/></g></symbol>
    <symbol viewBox="0 0 20 20" id="z-whatsapp" xmlns="http://www.w3.org/2000/svg"><g data-name="Camada 2"><path d="M10.18 0A9.78 9.78 0 00.36 9.74a9.66 9.66 0 001.41 5L0 20l5.44-1.73A9.76 9.76 0 1010.18 0zm4.88 13.44a2.49 2.49 0 01-1.73 1.12c-.46 0-.48.36-3-.73A10.19 10.19 0 016.2 9.91a4.76 4.76 0 01-.92-2.6 2.77 2.77 0 011-2A1 1 0 016.91 5a3.82 3.82 0 01.48 0c.14 0 .36 0 .55.47l.7 1.88a.44.44 0 010 .43 1.62 1.62 0 01-.27.41c-.13.14-.27.31-.39.42s-.27.25-.13.5a7.55 7.55 0 001.33 1.78 7 7 0 002 1.31c.24.13.39.11.54 0a11.52 11.52 0 00.83-.94c.18-.24.35-.2.57-.1s1.44.73 1.69.87.41.2.46.31a2 2 0 01-.21 1.1z" data-name="Camada 1"/></g></symbol>
    <symbol viewBox="0 0 20 20" id="z-youtube" xmlns="http://www.w3.org/2000/svg"><g data-name="Camada 2"><path d="M9.32 14.25a1.29 1.29 0 01-.18.16.35.35 0 01-.16.06c-.06 0-.1 0-.12-.05a.21.21 0 010-.15V12h-.62v2.48a.63.63 0 00.1.39.36.36 0 00.31.13.71.71 0 00.35-.09 1.19 1.19 0 00.34-.27V15h.56v-3h-.58zm.5-6.31a.32.32 0 00.18-.08.28.28 0 00.08-.2V5.88a.21.21 0 00-.08-.17.31.31 0 00-.21-.07.27.27 0 00-.2.07.21.21 0 00-.07.17v1.78a.27.27 0 00.07.2.25.25 0 00.23.08zM6 11.53h.68V15h.66v-3.47H8V11H6zM10 0a10 10 0 1010 10A10 10 0 0010 0zm1.3 5.16h.7v2.5a.24.24 0 000 .16.15.15 0 00.13.06.5.5 0 00.19-.07 1.12 1.12 0 00.2-.18V5.16h.65v3.26h-.65v-.36a1.47 1.47 0 01-.38.3.82.82 0 01-.38.11.41.41 0 01-.34-.15.68.68 0 01-.12-.44zm-2.43.74a.74.74 0 01.27-.6 1 1 0 01.71-.22 1 1 0 01.66.23.77.77 0 01.26.61v1.69a.85.85 0 01-.25.65 1 1 0 01-.7.24 1 1 0 01-.69-.24.9.9 0 01-.26-.67zM7.09 4l.48 1.77.5-1.77h.75L8 6.59v1.83h-.78V6.67L6.34 4zm7.41 11.85c-.48.47-4.5.48-4.5.48s-4 0-4.51-.48S5 13 5 13s0-2.37.48-2.85S10 9.66 10 9.66s4 0 4.5.48S15 13 15 13s0 2.37-.5 2.85zm-1.3-3.92a.89.89 0 00-.64.24.85.85 0 00-.24.63v1.33a1 1 0 00.22.67.81.81 0 00.62.24.83.83 0 00.65-.23.93.93 0 00.22-.68V14h-.6v.13a.61.61 0 01-.06.34.23.23 0 01-.2.07.22.22 0 01-.2-.08.69.69 0 01-.05-.33v-.56H14v-.77a.88.88 0 00-.22-.65.79.79 0 00-.58-.22zm.23 1.16h-.51v-.3a.43.43 0 01.06-.26.21.21 0 01.2-.08.21.21 0 01.19.08.43.43 0 01.06.26zm-2-1.12a.48.48 0 00-.26.07.76.76 0 00-.25.2V11h-.59v4h.59v-.23a.77.77 0 00.24.21.75.75 0 00.31.06.48.48 0 00.39-.17.69.69 0 00.14-.48v-1.68a1 1 0 00-.14-.56.52.52 0 00-.42-.15zm0 2.3a.28.28 0 01-.05.2.18.18 0 01-.15.06h-.15a.38.38 0 01-.13-.1v-1.87a.24.24 0 01.12-.09.18.18 0 01.12 0 .21.21 0 01.18.07.37.37 0 01.06.23z" data-name="Camada 1"/></g></symbol>
</svg>